<svg width="46" height="12" viewBox="0 0 46 12" fill="none" xmlns="http://www.w3.org/2000/svg">
<path d="M41.5673 3.39092L43.1517 8.51199C30.5803 0.216134 23.6398 1.1636 20.7384 2.41299C20.4667 2.29411 20.2276 2.12837 19.9559 2.00949C17.1798 0.779259 7.69629 -2.39403 0.0324739 8.66481L0 8.71167L1.1958 9.54037L1.22828 9.49351C8.30757 -0.721858 16.9489 2.00649 19.5132 3.15928C17.4643 4.5833 16.7957 6.82517 17.7982 8.69909C18.6862 10.355 20.5825 11.3223 23.0958 11.3993C26.2225 11.4851 26.6209 9.88846 26.6467 9.21269C26.7138 7.45569 24.9015 5.08998 22.2656 3.402C26.1495 2.1398 32.9801 3.2665 42.4697 9.49604L37.2107 9.80525L37.5931 11.0414L45.1587 10.5965L42.9188 3.35641L41.5673 3.39092ZM25.2782 8.8886C25.237 9.96983 23.9401 10.1809 22.8056 10.1577C20.9655 10.1311 19.58 9.44838 19.0079 8.35826C18.5229 7.39787 18.6564 6.31122 19.3059 5.37403C19.5982 4.95229 19.9827 4.52513 20.4868 4.18084C20.644 4.0817 20.8012 3.98256 20.9584 3.88341C23.6593 5.47767 25.2973 7.58392 25.2782 8.8886Z" fill="white"/>
</svg>
